<svg width="206" height="115" viewBox="0 0 206 115" fill="none" xmlns="http://www.w3.org/2000/svg">
<rect width="206" height="115" fill="#DBD656"/>
<path d="M17.4058 72H3.38037V41.0518H18.4136C22.2069 41.1077 24.8944 42.2065 26.4761 44.3481C27.4279 45.6639 27.9038 47.2386 27.9038 49.0723C27.9038 50.9619 27.4279 52.4806 26.4761 53.6284C25.9442 54.2723 25.1603 54.8602 24.1245 55.3921C25.7062 55.966 26.896 56.8758 27.6938 58.1216C28.5057 59.3674 28.9116 60.8791 28.9116 62.6567C28.9116 64.4904 28.4497 66.1351 27.5259 67.5908C26.938 68.5566 26.2031 69.3685 25.3213 70.0264C24.3275 70.7822 23.1517 71.3001 21.7939 71.5801C20.4502 71.86 18.9875 72 17.4058 72ZM17.2588 58.3735H9.55322V66.625H17.1538C18.5116 66.625 19.5684 66.443 20.3242 66.0791C21.696 65.4072 22.3818 64.1195 22.3818 62.2158C22.3818 60.6061 21.717 59.5003 20.3872 58.8984C19.6453 58.5625 18.6025 58.3875 17.2588 58.3735ZM20.4712 52.4736C21.311 51.9697 21.731 51.0669 21.731 49.7651C21.731 48.3234 21.1711 47.3716 20.0513 46.9097C19.0854 46.5877 17.8537 46.4268 16.356 46.4268H9.55322V53.2505H17.1538C18.5116 53.2505 19.6174 52.9915 20.4712 52.4736ZM53.4561 65.2812C53.3021 66.639 52.5952 68.0177 51.3354 69.4175C49.3758 71.6431 46.6323 72.7559 43.105 72.7559C40.1935 72.7559 37.625 71.818 35.3994 69.9424C33.1738 68.0667 32.061 65.0153 32.061 60.7881C32.061 56.8268 33.0618 53.7894 35.0635 51.6758C37.0791 49.5622 39.6896 48.5054 42.895 48.5054C44.7987 48.5054 46.5133 48.8623 48.0391 49.5762C49.5648 50.29 50.8245 51.4168 51.8184 52.9565C52.7142 54.3143 53.2951 55.889 53.561 57.6807C53.715 58.7305 53.778 60.2422 53.75 62.2158H38.0869C38.1709 64.5114 38.8918 66.1211 40.2495 67.0449C41.0754 67.6188 42.0692 67.9058 43.231 67.9058C44.4627 67.9058 45.4635 67.5558 46.2334 66.856C46.6533 66.478 47.0243 65.9531 47.3462 65.2812H53.4561ZM47.5352 58.2686C47.4372 56.6868 46.9543 55.4901 46.0864 54.6782C45.2326 53.8524 44.1688 53.4395 42.895 53.4395C41.5093 53.4395 40.4315 53.8734 39.6616 54.7412C38.9058 55.609 38.4299 56.7848 38.2339 58.2686H47.5352ZM73.5703 50.1641C75.362 51.3118 76.3908 53.2855 76.6567 56.085H70.6729C70.5889 55.3151 70.3719 54.7062 70.022 54.2583C69.3641 53.4465 68.2443 53.0405 66.6626 53.0405C65.3608 53.0405 64.43 53.2435 63.8701 53.6494C63.3242 54.0553 63.0513 54.5312 63.0513 55.0771C63.0513 55.763 63.3452 56.2599 63.9331 56.5679C64.521 56.8898 66.5996 57.4427 70.1689 58.2266C72.5485 58.7865 74.3332 59.6333 75.5229 60.7671C76.6987 61.9149 77.2866 63.3496 77.2866 65.0713C77.2866 67.3389 76.4398 69.1935 74.7461 70.6353C73.0664 72.063 70.4629 72.7769 66.9355 72.7769C63.3382 72.7769 60.6787 72.021 58.957 70.5093C57.2493 68.9836 56.3955 67.0449 56.3955 64.6934H62.4634C62.5894 65.7572 62.8623 66.513 63.2822 66.9609C64.0241 67.7588 65.3958 68.1577 67.3975 68.1577C68.5732 68.1577 69.5041 67.9827 70.1899 67.6328C70.8898 67.2829 71.2397 66.758 71.2397 66.0581C71.2397 65.3862 70.9598 64.8753 70.3999 64.5254C69.84 64.1755 67.7614 63.5736 64.1641 62.7197C61.5745 62.0758 59.7479 61.271 58.6841 60.3052C57.6203 59.3534 57.0884 57.9816 57.0884 56.1899C57.0884 54.0763 57.9142 52.2637 59.5659 50.752C61.2316 49.2262 63.5692 48.4634 66.5786 48.4634C69.4341 48.4634 71.7646 49.0303 73.5703 50.1641ZM92.2148 67.7378V72.21L89.3804 72.3149C86.5529 72.4129 84.6213 71.923 83.5854 70.8452C82.9136 70.1593 82.5776 69.1025 82.5776 67.6748V53.5864H79.3862V49.3242H82.5776V42.9414H88.4985V49.3242H92.2148V53.5864H88.4985V65.6802C88.4985 66.618 88.6175 67.2059 88.8555 67.4438C89.0934 67.6678 89.8213 67.7798 91.0391 67.7798C91.221 67.7798 91.41 67.7798 91.606 67.7798C91.8159 67.7658 92.0189 67.7518 92.2148 67.7378ZM111.825 50.1641C113.617 51.3118 114.646 53.2855 114.912 56.085H108.928C108.844 55.3151 108.627 54.7062 108.277 54.2583C107.619 53.4465 106.499 53.0405 104.917 53.0405C103.616 53.0405 102.685 53.2435 102.125 53.6494C101.579 54.0553 101.306 54.5312 101.306 55.0771C101.306 55.763 101.6 56.2599 102.188 56.5679C102.776 56.8898 104.854 57.4427 108.424 58.2266C110.803 58.7865 112.588 59.6333 113.778 60.7671C114.954 61.9149 115.542 63.3496 115.542 65.0713C115.542 67.3389 114.695 69.1935 113.001 70.6353C111.321 72.063 108.718 72.7769 105.19 72.7769C101.593 72.7769 98.9336 72.021 97.2119 70.5093C95.5042 68.9836 94.6504 67.0449 94.6504 64.6934H100.718C100.844 65.7572 101.117 66.513 101.537 66.9609C102.279 67.7588 103.651 68.1577 105.652 68.1577C106.828 68.1577 107.759 67.9827 108.445 67.6328C109.145 67.2829 109.495 66.758 109.495 66.0581C109.495 65.3862 109.215 64.8753 108.655 64.5254C108.095 64.1755 106.016 63.5736 102.419 62.7197C99.8294 62.0758 98.0028 61.271 96.939 60.3052C95.8752 59.3534 95.3433 57.9816 95.3433 56.1899C95.3433 54.0763 96.1691 52.2637 97.8208 50.752C99.4865 49.2262 101.824 48.4634 104.833 48.4634C107.689 48.4634 110.02 49.0303 111.825 50.1641ZM139.582 65.2812C139.428 66.639 138.721 68.0177 137.461 69.4175C135.502 71.6431 132.758 72.7559 129.231 72.7559C126.319 72.7559 123.751 71.818 121.525 69.9424C119.3 68.0667 118.187 65.0153 118.187 60.7881C118.187 56.8268 119.188 53.7894 121.189 51.6758C123.205 49.5622 125.816 48.5054 129.021 48.5054C130.925 48.5054 132.639 48.8623 134.165 49.5762C135.691 50.29 136.951 51.4168 137.944 52.9565C138.84 54.3143 139.421 55.889 139.687 57.6807C139.841 58.7305 139.904 60.2422 139.876 62.2158H124.213C124.297 64.5114 125.018 66.1211 126.375 67.0449C127.201 67.6188 128.195 67.9058 129.357 67.9058C130.589 67.9058 131.59 67.5558 132.359 66.856C132.779 66.478 133.15 65.9531 133.472 65.2812H139.582ZM133.661 58.2686C133.563 56.6868 133.08 55.4901 132.212 54.6782C131.359 53.8524 130.295 53.4395 129.021 53.4395C127.635 53.4395 126.557 53.8734 125.788 54.7412C125.032 55.609 124.556 56.7848 124.36 58.2686H133.661ZM144.054 41.0518H150.038V72H144.054V41.0518ZM156.022 41.0518H162.006V72H156.022V41.0518ZM187.453 65.2812C187.299 66.639 186.592 68.0177 185.333 69.4175C183.373 71.6431 180.629 72.7559 177.102 72.7559C174.191 72.7559 171.622 71.818 169.396 69.9424C167.171 68.0667 166.058 65.0153 166.058 60.7881C166.058 56.8268 167.059 53.7894 169.061 51.6758C171.076 49.5622 173.687 48.5054 176.892 48.5054C178.796 48.5054 180.51 48.8623 182.036 49.5762C183.562 50.29 184.822 51.4168 185.815 52.9565C186.711 54.3143 187.292 55.889 187.558 57.6807C187.712 58.7305 187.775 60.2422 187.747 62.2158H172.084C172.168 64.5114 172.889 66.1211 174.247 67.0449C175.072 67.6188 176.066 67.9058 177.228 67.9058C178.46 67.9058 179.461 67.5558 180.23 66.856C180.65 66.478 181.021 65.9531 181.343 65.2812H187.453ZM181.532 58.2686C181.434 56.6868 180.951 55.4901 180.083 54.6782C179.23 53.8524 178.166 53.4395 176.892 53.4395C175.506 53.4395 174.429 53.8734 173.659 54.7412C172.903 55.609 172.427 56.7848 172.231 58.2686H181.532ZM203.305 54.6362C200.898 54.6362 199.281 55.4201 198.455 56.9878C197.993 57.8696 197.762 59.2274 197.762 61.061V72H191.736V49.1143H197.447V53.1035C198.371 51.5778 199.176 50.535 199.862 49.9751C200.982 49.0373 202.437 48.5684 204.229 48.5684C204.341 48.5684 204.432 48.5754 204.502 48.5894C204.586 48.5894 204.761 48.5964 205.027 48.6104V54.7412C204.649 54.6992 204.313 54.6712 204.019 54.6572C203.725 54.6432 203.487 54.6362 203.305 54.6362Z" fill="#605A53"/>
</svg>
