<svg width="120" height="22" viewBox="0 0 120 22" fill="none" xmlns="http://www.w3.org/2000/svg">
<path d="M112.4 7.29876L112.284 7.06304L109.528 1.4789C109.519 1.4633 109.51 1.44822 109.5 1.43369V18.0269L114.755 20.7893C115.04 20.9392 115.393 20.8295 115.543 20.5443C115.602 20.4308 115.623 20.3008 115.601 20.1744C115.601 20.1743 115.601 20.1743 115.601 20.1743L114.546 14.0256L114.502 13.7665L114.69 13.583L119.157 9.22925L112.4 7.29876ZM112.4 7.29876L112.661 7.33656M112.4 7.29876L112.661 7.33656M112.661 7.33656L118.834 8.23367M112.661 7.33656L118.834 8.23367M118.834 8.23367C119.054 8.2657 119.236 8.41961 119.305 8.63078L118.834 8.23367ZM119.305 8.63088C119.374 8.84212 119.316 9.07397 119.157 9.2291L119.305 8.63088Z" fill="white" stroke="#E59819"/>
<path d="M108.028 1.24789L105.268 6.84182L99.094 7.73902C98.8584 7.77334 98.6406 7.88429 98.4744 8.05469C98.0565 8.48315 98.0651 9.16929 98.4936 9.58718L102.961 13.9411L101.906 20.0898C101.866 20.3246 101.904 20.566 102.015 20.7768C102.293 21.3066 102.948 21.5103 103.478 21.2319L109 18.3289V0.712036C108.615 0.712892 108.238 0.892151 108.028 1.24789Z" fill="#E59819"/>
<path d="M11 1L14.09 7.26L21 8.27L16 13.14L17.18 20.02L11 16.77L4.82 20.02L6 13.14L1 8.27L7.91 7.26L11 1Z" fill="#E59819" stroke="#E59819" stroke-width="2" stroke-linecap="round" stroke-linejoin="round"/>
<path d="M37 1L40.09 7.26L47 8.27L42 13.14L43.18 20.02L37 16.77L30.82 20.02L32 13.14L27 8.27L33.91 7.26L37 1Z" fill="#E59819" stroke="#E59819" stroke-width="2" stroke-linecap="round" stroke-linejoin="round"/>
<path d="M61 1L64.09 7.26L71 8.27L66 13.14L67.18 20.02L61 16.77L54.82 20.02L56 13.14L51 8.27L57.91 7.26L61 1Z" fill="#E59819" stroke="#E59819" stroke-width="2" stroke-linecap="round" stroke-linejoin="round"/>
<path d="M85 1L88.09 7.26L95 8.27L90 13.14L91.18 20.02L85 16.77L78.82 20.02L80 13.14L75 8.27L81.91 7.26L85 1Z" fill="#E59819" stroke="#E59819" stroke-width="2" stroke-linecap="round" stroke-linejoin="round"/>
</svg>
